<svg width="256" height="256" viewBox="0 0 256 256" xmlns="http://www.w3.org/2000/svg">
  <rect width="256" height="256" rx="26" fill="#0B1020"/>
  <path d="M76 56h104c15.464 0 28 12.536 28 28v52c0 15.464-12.536 28-28 28h-64l-40 28v-28H76c-15.464 0-28-12.536-28-28V84c0-15.464 12.536-28 28-28z" fill="#2F6BFF"/>
  <path d="M128 88l28 12v20c0 22.091-12.536 33.182-28 40-15.464-6.818-28-17.909-28-40V100l28-12z" fill="#0B1020"/>
  <circle cx="86" cy="96" r="6" fill="#09D3E3"/>
  <circle cx="170" cy="96" r="6" fill="#09D3E3"/>
</svg>

